HIERARCHY
ROOT Hips
{
    OFFSET 0.000000 0.000000 0.000000
    CHANNELS 6 Xposition Yposition Zposition Zrotation Xrotation Yrotation
    JOINT Spine
    {
        OFFSET -0.000000 7.236184 0.000000
        CHANNELS 3 Zrotation Xrotation Yrotation
        JOINT Spine1
        {
            OFFSET -0.000000 20.420147 0.000000
            CHANNELS 3 Zrotation Xrotation Yrotation
            JOINT Neck
            {
                OFFSET -0.000000 20.336288 1.848754
                CHANNELS 3 Zrotation Xrotation Yrotation
                JOINT Head
                {
                    OFFSET -0.000000 12.354461 -1.764923
                    CHANNELS 3 Zrotation Xrotation Yrotation
                    End Site
                    {
                        OFFSET -0.000000 22.061537 0.000000
                    }
                }
            }
            JOINT LeftShoulder
            {
                OFFSET 3.573296 18.396038 -0.314103
                CHANNELS 3 Zrotation Xrotation Yrotation
                JOINT LeftArm
                {
                    OFFSET 10.880760 0.000000 0.000000
                    CHANNELS 3 Zrotation Xrotation Yrotation
                    JOINT LeftForeArm
                    {
                        OFFSET 27.185530 0.000000 0.000000
                        CHANNELS 3 Zrotation Xrotation Yrotation
                        JOINT LeftHand
                        {
                            OFFSET 27.825975 0.000000 0.000000
                            CHANNELS 3 Zrotation Xrotation Yrotation
                            End Site
                            {
                                OFFSET 13.236923 0.000000 0.000000
                            }
                        }
                    }
                }
            }
            JOINT RightShoulder
            {
                OFFSET -3.474926 18.396038 -0.314103
                CHANNELS 3 Zrotation Xrotation Yrotation
                JOINT RightArm
                {
                    OFFSET -10.880760 0.000000 0.000000
                    CHANNELS 3 Zrotation Xrotation Yrotation
                    JOINT RightForeArm
                    {
                        OFFSET -27.185530 0.000000 0.000000
                        CHANNELS 3 Zrotation Xrotation Yrotation
                        JOINT RightHand
                        {
                            OFFSET -27.825975 0.000000 0.000000
                            CHANNELS 3 Zrotation Xrotation Yrotation
                            End Site
                            {
                                OFFSET -13.236923 0.000000 0.000000
                            }
                        }
                    }
                }
            }
        }
    }
    JOINT LeftUpLeg
    {
        OFFSET 8.824615 0.000000 0.000000
        CHANNELS 3 Zrotation Xrotation Yrotation
        JOINT LeftLeg
        {
            OFFSET -0.000000 -35.111282 0.000000
            CHANNELS 3 Zrotation Xrotation Yrotation
            JOINT LeftFoot
            {
                OFFSET -0.000000 -42.324711 0.000000
                CHANNELS 3 Zrotation Xrotation Yrotation
                JOINT LeftToeBase
                {
                    OFFSET -0.000000 -5.735999 13.236923
                    CHANNELS 3 Zrotation Xrotation Yrotation
                    End Site
                    {
                        OFFSET -0.000000 0.000000 3.529846
                    }
                }
            }
        }
    }
    JOINT RightUpLeg
    {
        OFFSET -8.824615 0.000000 0.000000
        CHANNELS 3 Zrotation Xrotation Yrotation
        JOINT RightLeg
        {
            OFFSET -0.000000 -35.111282 0.000000
            CHANNELS 3 Zrotation Xrotation Yrotation
            JOINT RightFoot
            {
                OFFSET -0.000000 -42.324711 0.000000
                CHANNELS 3 Zrotation Xrotation Yrotation
                JOINT RightToeBase
                {
                    OFFSET -0.000000 -5.735999 13.236923
                    CHANNELS 3 Zrotation Xrotation Yrotation
                    End Site
                    {
                        OFFSET -0.000000 0.000000 3.529846
                    }
                }
            }
        }
    }
}
MOTION
Frames:    4
Frame Time:    0.008333
-6.014147    84.054146    101.049896    11.808770    12.416826    -118.667480    -1.615930    -13.740496    1.392580    0.459278    6.468225    1.561405    1.621886    24.280804    -21.196442    25.713129    -3.880698    -17.572489    -0.218998    13.755484    7.872046    -37.341583    40.545303    -33.884575    10.115960    13.464349    -20.226435    57.246723    6.667521    -15.839515    1.487852    23.162495    -12.506793    53.046917    40.754547    13.559159    -35.868160    -11.858654    84.395126    -54.179089    18.383329    7.790168    14.340872    -14.279213    7.288583    -0.122211    28.021833    10.019119    1.700077    -16.557257    -6.173027    -0.309830    0.458172    0.343154    -6.937361    -30.383583    -5.466076    21.191647    45.039692    -18.053190    14.749013    16.165424    -16.306648    0.340004    -0.624731    -0.368057    
-6.088815    83.956871    100.979027    11.746206    12.005832    -118.452209    -1.635664    -13.912921    1.427470    0.028973    6.402512    1.625525    1.404885    24.122696    -21.176348    25.691324    -4.002594    -17.547155    -0.334493    13.618250    8.044710    -37.186806    40.055779    -33.885529    9.618970    13.701258    -19.665232    56.743118    6.865541    -15.835052    1.419457    23.224167    -12.507307    53.327007    41.553932    13.444295    -35.573093    -11.201958    83.926208    -54.513752    18.150126    8.303210    13.902742    -14.518142    7.035348    -0.101684    28.215336    9.958735    1.658774    -16.701826    -6.110914    -0.343428    0.484547    0.380347    -5.819979    -29.004000    -4.408845    19.897797    43.060890    -17.292852    14.125223    15.353612    -16.633648    0.389839    -1.093563    -0.422278    
-6.161153    83.862778    100.912567    11.684542    11.605401    -118.210625    -1.660766    -14.070760    1.472888    -0.380692    6.325409    1.699009    1.196897    23.977741    -21.182037    25.674397    -4.137174    -17.544182    -0.430235    13.462550    8.205313    -37.027958    39.529102    -33.912731    9.216423    13.922545    -19.277250    56.234367    7.076935    -15.842614    1.335757    23.264269    -12.499024    53.563683    42.279469    13.323734    -35.274323    -10.517632    83.374817    -54.851841    17.895712    8.814095    13.462431    -14.761060    6.766459    -0.072059    28.405209    9.884532    1.622541    -16.840725    -6.051059    -0.376515    0.514734    0.416969    -4.852311    -27.648321    -3.449110    18.745863    41.108044    -16.668739    13.438553    14.462378    -16.991705    0.436620    -1.613889    -0.473297    
-6.229699    83.773354    100.851501    11.624716    11.220737    -117.946442    -1.692418    -14.210806    1.528937    -0.763249    6.235785    1.781586    1.002670    23.850752    -21.214882    25.662683    -4.283383    -17.564646    -0.500861    13.288568    8.348663    -36.859875    38.983971    -33.972088    8.917873    14.124259    -19.071186    55.728741    7.300224    -15.853661    1.236486    23.281857    -12.480595    53.754372    42.922554    13.194200    -34.971821    -9.818542    82.750603    -55.187668    17.622234    9.311330    13.028318    -15.003707    6.488215    -0.037362    28.587765    9.799151    1.590167    -16.970303    -5.995310    -0.405271    0.547645    0.448789    -4.035720    -26.342384    -2.603092    17.728378    39.224258    -16.169027    12.706982    13.519482    -17.361914    0.477259    -2.143767    -0.517738    
